<?xml version="1.0" encoding="utf-8"?>
<!-- Generator: Adobe Illustrator 15.0.0, SVG Export Plug-In  -->
<!DOCTYPE svg PUBLIC "-//W3C//DTD SVG 1.1//EN" "http://www.w3.org/Graphics/SVG/1.1/DTD/svg11.dtd" [
	<!ENTITY ns_flows "http://ns.adobe.com/Flows/1.0/">
]>
<svg version="1.1"
	 xmlns="http://www.w3.org/2000/svg" xmlns:xlink="http://www.w3.org/1999/xlink" xmlns:a="http://ns.adobe.com/AdobeSVGViewerExtensions/3.0/"
	 x="0px" y="0px" width="65px" height="65px" viewBox="-0.5 -0.5 65 65"
	 overflow="visible" enable-background="new -0.5 -0.5 65 65" xml:space="preserve">
<defs>
</defs>
<circle fill="#00FF00" cx="32" cy="32" r="32"/>
<circle fill-rule="evenodd" clip-rule="evenodd" fill="#FFFFFF" cx="33.267" cy="29.256" r="10.93"/>
<path fill-rule="evenodd" clip-rule="evenodd" fill="#0000FF" d="M41.49,5.5c3.342,1.94,6.678,3.888,10.06,5.789
	c-0.731,1.61-1.747,2.938-2.55,4.477c0.303,0.688,0.967,1.056,1.448,1.585c0.933,1.028,1.767,2.049,2.617,3.376
	c0.387,0.604,0.903,1.372,0.896,2.068c-0.005,0.417-0.322,1.212-0.619,1.859c-1.812,3.966-3.74,7.705-5.581,11.644
	c-1.046,2.235-2.207,4.786-2.136,7.717c0.07,2.969,1.369,4.981,2.756,6.96c-0.652,1.623-1.409,3.139-2.067,4.754
	c-4.867-0.306-8.843-2.169-12.815-3.789c-3.929-1.604-7.801-3.229-11.368-5.236c-3.491-1.966-6.984-4.105-10.198-6.409
	c-1.579-1.132-3.164-2.345-4.615-3.65c-1.444-1.3-2.932-2.654-3.858-4.41c0.092-0.429,0.479-0.745,0.758-1.103
	c0.804-1.03,1.682-2.217,2.55-3.238c0.537,0.002,1.043,0.117,1.446,0.139c8.448,0.42,11.425-5.554,15.089-10.543
	c1.448-1.972,2.773-3.773,4.341-5.855c0.324-0.431,0.692-0.965,1.103-1.446c0.383-0.451,0.914-1.082,1.309-1.241
	c1.223-0.49,3.228-0.079,4.549,0.137c1.505,0.247,2.78,0.539,3.994,0.896c0.579-0.607,0.929-1.422,1.38-2.136
	C40.481,7.041,40.966,6.271,41.49,5.5z M42.731,8.602c-0.444,0.797-0.95,1.529-1.379,2.342c1.716,0.746,3.475,1.731,4.893,2.687
	c0.191,0.13,0.347,0.418,0.619,0.346c0.46-0.781,1.001-1.48,1.378-2.343C46.312,10.717,44.682,9.497,42.731,8.602z M39.768,18.247
	c0.177-0.009,0.241-0.126,0.345-0.207C39.896,18.007,39.831,18.126,39.768,18.247z M38.596,21.485
	c-1.969,1.706-3.809,3.539-5.855,5.167c-2.253-1.168-4.364-2.479-6.615-3.651c1.007,2.347,2.061,4.646,3.102,6.958
	c-1.714,1.524-3.76,3.185-5.374,4.754c-0.042,0.042-0.367,0.155-0.139,0.276c2.48-0.252,4.896-0.57,7.373-0.827
	c1.035,2.181,1.973,4.46,3.031,6.614c0.447-1.88,0.929-3.748,1.309-5.374c0.143-0.609,0.168-1.232,0.483-1.79
	c2.473-0.328,4.965-0.64,7.51-0.896c-0.424-0.455-1.041-0.662-1.585-0.965c-1.12-0.625-2.188-1.276-3.239-1.859
	c-0.553-0.309-1.207-0.503-1.652-0.966c0.577-2.5,1.115-5.04,1.791-7.44C38.688,21.485,38.643,21.485,38.596,21.485z M32.12,25.344
	c0.069,0,0.138,0,0.207,0c0-0.069,0-0.138,0-0.207c-0.047,0-0.092,0-0.138,0C32.186,25.225,32.101,25.231,32.12,25.344z"/>
<path fill-rule="evenodd" clip-rule="evenodd" fill="#0000FF" d="M19.994,48.288c2.289-0.393,4.205,1.118,4.134,3.308
	c-0.061,1.833-1.541,2.915-2.756,3.1c-2.007,0.304-4.163-1.116-4.135-3.308C17.258,49.831,18.451,48.551,19.994,48.288z"/>
</svg>
