<?xml version="1.0" encoding="utf-8"?>
<!-- Generator: Adobe Illustrator 15.0.0, SVG Export Plug-In  -->
<!DOCTYPE svg PUBLIC "-//W3C//DTD SVG 1.1//EN" "http://www.w3.org/Graphics/SVG/1.1/DTD/svg11.dtd" [
	<!ENTITY ns_flows "http://ns.adobe.com/Flows/1.0/">
]>
<svg version="1.1"
	 xmlns="http://www.w3.org/2000/svg" xmlns:xlink="http://www.w3.org/1999/xlink" xmlns:a="http://ns.adobe.com/AdobeSVGViewerExtensions/3.0/"
	 x="0px" y="0px" width="64px" height="64px" viewBox="0 0 64 64" overflow="visible" enable-background="new 0 0 64 64"
	 xml:space="preserve">
<defs>
</defs>
<circle fill="#00FF00" cx="32" cy="32" r="32"/>
<circle fill-rule="evenodd" clip-rule="evenodd" fill="#FFFFFF" cx="34.217" cy="28.486" r="12.18"/>
<path fill-rule="evenodd" clip-rule="evenodd" fill="#0000FF" d="M43.383,2.014c3.724,2.162,7.441,4.332,11.209,6.451
	c-0.814,1.794-1.946,3.273-2.841,4.988c0.337,0.767,1.077,1.177,1.612,1.767c1.041,1.146,1.971,2.283,2.917,3.762
	c0.431,0.673,1.008,1.529,0.999,2.305c-0.007,0.465-0.359,1.351-0.689,2.072c-2.021,4.419-4.168,8.586-6.221,12.976
	c-1.164,2.49-2.46,5.333-2.379,8.599c0.078,3.309,1.525,5.552,3.07,7.756c-0.727,1.809-1.57,3.498-2.305,5.298
	c-5.424-0.341-9.853-2.417-14.279-4.223c-4.379-1.786-8.693-3.598-12.67-5.835c-3.889-2.19-7.783-4.575-11.363-7.142
	c-1.761-1.262-3.525-2.613-5.143-4.068C3.689,35.271,2.033,33.761,1,31.805c0.102-0.479,0.533-0.831,0.844-1.229
	c0.897-1.147,1.875-2.47,2.843-3.608c0.599,0.003,1.162,0.131,1.61,0.155c9.416,0.468,12.732-6.189,16.816-11.749
	c1.612-2.197,3.09-4.205,4.836-6.525c0.361-0.479,0.772-1.075,1.229-1.611c0.427-0.503,1.019-1.206,1.458-1.384
	C32,5.307,34.232,5.765,35.706,6.005c1.676,0.275,3.097,0.602,4.451,0.999c0.644-0.677,1.033-1.584,1.536-2.38
	C42.258,3.73,42.797,2.872,43.383,2.014z M44.765,5.47c-0.494,0.889-1.058,1.704-1.536,2.609c1.912,0.832,3.871,1.93,5.451,2.994
	c0.214,0.145,0.388,0.466,0.69,0.386c0.514-0.871,1.116-1.65,1.536-2.611C48.754,7.827,46.938,6.468,44.765,5.47z M41.463,16.219
	c0.195-0.01,0.268-0.141,0.383-0.231C41.606,15.951,41.532,16.084,41.463,16.219z M40.157,19.827
	c-2.194,1.901-4.244,3.943-6.525,5.758c-2.512-1.302-4.864-2.763-7.372-4.069c1.121,2.615,2.297,5.179,3.457,7.754
	c-1.911,1.699-4.19,3.549-5.99,5.298c-0.046,0.047-0.409,0.173-0.154,0.308c2.764-0.28,5.456-0.635,8.216-0.922
	c1.153,2.431,2.198,4.971,3.378,7.371c0.498-2.095,1.036-4.177,1.459-5.988c0.158-0.68,0.187-1.374,0.539-1.995
	c2.756-0.365,5.533-0.713,8.369-0.999c-0.473-0.507-1.16-0.737-1.768-1.075c-1.247-0.696-2.438-1.422-3.608-2.072
	c-0.616-0.344-1.346-0.561-1.842-1.076c0.643-2.785,1.243-5.616,1.996-8.291C40.26,19.827,40.209,19.827,40.157,19.827z
	 M32.939,24.127c0.078,0,0.154,0,0.23,0c0-0.077,0-0.153,0-0.23c-0.052,0-0.102,0-0.152,0
	C33.014,23.994,32.918,24.002,32.939,24.127z"/>
<path fill-rule="evenodd" clip-rule="evenodd" fill="#0000FF" d="M19.428,49.695c2.551-0.438,4.687,1.246,4.605,3.686
	c-0.067,2.043-1.717,3.248-3.07,3.454c-2.235,0.339-4.639-1.244-4.607-3.686C16.379,51.414,17.709,49.987,19.428,49.695z"/>
</svg>
