<?xml version="1.0" encoding="utf-8"?>
<!-- Generator: Adobe Illustrator 15.0.0, SVG Export Plug-In  -->
<!DOCTYPE svg PUBLIC "-//W3C//DTD SVG 1.1//EN" "http://www.w3.org/Graphics/SVG/1.1/DTD/svg11.dtd" [
	<!ENTITY ns_flows "http://ns.adobe.com/Flows/1.0/">
]>
<svg version="1.1"
	 xmlns="http://www.w3.org/2000/svg" xmlns:xlink="http://www.w3.org/1999/xlink" xmlns:a="http://ns.adobe.com/AdobeSVGViewerExtensions/3.0/"
	 x="0px" y="0px" width="1080px" height="1080px" viewBox="0 0 1080 1080"
	 overflow="visible" enable-background="new 0 0 1080 1080" xml:space="preserve">
<defs>
</defs>
<g display="none">
	<defs>
		<circle id="SVGID_1_" cx="540" cy="540" r="540"/>
	</defs>
	<use xlink:href="#SVGID_1_"  overflow="visible" fill="#0000FF"/>
	<clipPath id="SVGID_2_" display="inline">
		<use xlink:href="#SVGID_1_"  display="none" overflow="visible"/>
	</clipPath>
	<g opacity="0.5" clip-path="url(#SVGID_2_)">
		<path fill-rule="evenodd" clip-rule="evenodd" fill="#FF0000" d="M674.132,89.589c58.61,34.022,117.101,68.167,176.406,101.493
			c-12.818,28.263-30.636,51.526-44.705,78.538c5.295,12.07,16.952,18.518,25.373,27.79c16.373,18.026,30.99,35.931,45.914,59.204
			c6.781,10.576,15.849,24.042,15.707,36.248c-0.085,7.312-5.678,21.245-10.874,32.623
			c-31.762,69.556-65.588,135.135-97.869,204.196c-18.327,39.207-38.688,83.914-37.456,135.325
			c1.247,52.045,24.011,87.348,48.33,122.034c-11.421,28.451-24.704,55.041-36.247,83.37
			c-85.341-5.363-155.083-38.037-224.737-66.454c-68.907-28.113-136.813-56.6-199.362-91.828
			c-61.211-34.475-122.49-72-178.823-112.368c-27.706-19.854-55.497-41.136-80.953-64.038
			c-25.324-22.782-51.41-46.538-67.663-77.329c1.597-7.515,8.399-13.05,13.291-19.332c14.082-18.081,29.481-38.893,44.706-56.788
			c9.427,0.028,18.302,2.063,25.373,2.417c148.156,7.382,200.355-97.381,264.609-184.864c25.4-34.584,48.622-66.174,76.12-102.702
			c5.688-7.556,12.14-16.894,19.332-25.374c6.698-7.896,16.027-18.963,22.957-21.748c21.438-8.619,56.588-1.376,79.746,2.416
			c26.397,4.322,48.766,9.448,70.079,15.708c10.149-10.655,16.251-24.942,24.165-37.456
			C656.432,116.624,664.938,103.11,674.132,89.589z M695.881,143.961c-7.78,13.968-16.65,26.847-24.165,41.08
			c30.078,13.088,60.928,30.361,85.786,47.123c3.371,2.272,6.079,7.326,10.875,6.041c8.064-13.684,17.533-25.964,24.165-41.081
			C758.675,181.05,730.112,159.67,695.881,143.961z M643.926,313.117c3.087-0.135,4.229-2.215,6.041-3.625
			C646.172,308.919,645.03,310.999,643.926,313.117z M623.386,369.905c-34.535,29.905-66.809,62.072-102.702,90.619
			c-39.514-20.497-76.535-43.485-115.993-64.037c17.643,41.158,36.121,81.483,54.371,122.034
			c-30.046,26.726-65.95,55.857-94.244,83.37c-0.744,0.725-6.438,2.695-2.416,4.833c43.494-4.434,85.86-9.994,129.283-14.499
			c18.165,38.221,34.592,78.18,53.164,115.993c7.853-32.969,16.278-65.742,22.957-94.245c2.507-10.699,2.933-21.612,8.457-31.414
			c43.376-5.76,87.081-11.192,131.701-15.708c-7.427-7.969-18.267-11.599-27.79-16.915c-19.64-10.966-38.359-22.394-56.788-32.623
			c-9.703-5.386-21.201-8.802-28.999-16.916c10.125-43.844,19.553-88.385,31.415-130.492
			C624.996,369.905,624.191,369.905,623.386,369.905z M509.809,437.568c1.208,0,2.417,0,3.625,0c0-1.209,0-2.417,0-3.625
			c-0.806,0-1.61,0-2.417,0C510.95,435.487,509.469,435.616,509.809,437.568z"/>
		<path fill-rule="evenodd" clip-rule="evenodd" fill="#FF0000" d="M297.155,839.919c40.151-6.851,73.749,19.628,72.495,57.996
			c-1.051,32.157-27.031,51.15-48.33,54.372c-35.205,5.326-72.996-19.574-72.496-57.996
			C249.18,866.991,270.097,844.535,297.155,839.919z"/>
	</g>
	<g clip-path="url(#SVGID_2_)">
		<path fill-rule="evenodd" clip-rule="evenodd" fill="#EC831D" d="M704.132,79.589c58.61,34.022,117.101,68.167,176.406,101.493
			c-12.818,28.263-30.636,51.526-44.705,78.538c5.295,12.07,16.952,18.518,25.373,27.79c16.373,18.026,30.99,35.931,45.914,59.204
			c6.781,10.576,15.849,24.042,15.707,36.248c-0.085,7.312-5.678,21.245-10.874,32.623
			c-31.762,69.556-65.588,135.135-97.869,204.196c-18.327,39.207-38.688,83.914-37.456,135.325
			c1.247,52.045,24.011,87.348,48.33,122.034c-11.421,28.451-24.704,55.041-36.247,83.37
			c-85.341-5.363-155.083-38.037-224.737-66.454c-68.907-28.113-136.813-56.6-199.362-91.828
			c-61.211-34.475-122.49-72-178.823-112.368c-27.706-19.854-55.497-41.136-80.953-64.038
			c-25.324-22.782-51.41-46.538-67.663-77.329c1.597-7.515,8.399-13.05,13.291-19.332c14.082-18.081,29.481-38.893,44.706-56.788
			c9.427,0.028,18.302,2.063,25.373,2.417c148.156,7.382,200.355-97.381,264.609-184.864c25.4-34.584,48.622-66.174,76.12-102.702
			c5.688-7.556,12.14-16.894,19.332-25.374c6.698-7.896,16.027-18.963,22.957-21.748c21.438-8.619,56.588-1.376,79.746,2.416
			c26.397,4.322,48.766,9.448,70.079,15.708c10.149-10.655,16.251-24.942,24.165-37.456
			C686.432,106.624,694.938,93.11,704.132,79.589z M725.881,133.961c-7.78,13.968-16.65,26.847-24.165,41.08
			c30.078,13.088,60.928,30.361,85.786,47.123c3.371,2.272,6.079,7.326,10.875,6.041c8.064-13.684,17.533-25.964,24.165-41.081
			C788.675,171.05,760.112,149.67,725.881,133.961z M673.926,303.117c3.087-0.135,4.229-2.215,6.041-3.625
			C676.172,298.919,675.03,300.999,673.926,303.117z M653.386,359.905c-34.535,29.905-66.809,62.072-102.702,90.619
			c-39.514-20.497-76.535-43.485-115.993-64.037c17.643,41.158,36.121,81.483,54.371,122.034
			c-30.046,26.726-65.95,55.857-94.244,83.37c-0.744,0.725-6.438,2.695-2.416,4.833c43.494-4.434,85.86-9.994,129.283-14.499
			c18.165,38.221,34.592,78.18,53.164,115.993c7.853-32.969,16.278-65.742,22.957-94.245c2.507-10.699,2.933-21.612,8.457-31.414
			c43.376-5.76,87.081-11.192,131.701-15.708c-7.427-7.969-18.267-11.599-27.79-16.915c-19.64-10.966-38.359-22.394-56.788-32.623
			c-9.703-5.386-21.201-8.802-28.999-16.916c10.125-43.844,19.553-88.385,31.415-130.492
			C654.996,359.905,654.191,359.905,653.386,359.905z M539.809,427.568c1.208,0,2.417,0,3.625,0c0-1.209,0-2.417,0-3.625
			c-0.806,0-1.61,0-2.417,0C540.95,425.487,539.469,425.616,539.809,427.568z"/>
		<path fill-rule="evenodd" clip-rule="evenodd" fill="#EC831D" d="M327.155,829.919c40.151-6.851,73.749,19.628,72.495,57.996
			c-1.051,32.157-27.031,51.15-48.33,54.372c-35.205,5.326-72.996-19.574-72.496-57.996
			C279.18,856.991,300.097,834.535,327.155,829.919z"/>
	</g>
</g>
<circle display="none" fill-rule="evenodd" clip-rule="evenodd" fill="#FFFFFF" cx="640" cy="540" r="264.404"/>
<path display="none" fill-rule="evenodd" clip-rule="evenodd" fill="#0000FF" d="M812.662,4.229
	c71.3,41.389,142.455,82.927,214.602,123.469c-15.593,34.383-37.269,62.684-54.385,95.543c6.442,14.685,20.623,22.527,30.867,33.809
	c19.919,21.929,37.701,43.711,55.856,72.023c8.25,12.866,19.279,29.247,19.108,44.098c-0.104,8.896-6.908,25.844-13.229,39.686
	c-38.639,84.616-79.79,164.395-119.061,248.41c-22.296,47.696-47.065,102.084-45.567,164.627
	c1.519,63.312,29.21,106.261,58.796,148.457c-13.894,34.611-30.054,66.959-44.097,101.422
	c-103.819-6.524-188.662-46.271-273.397-80.843c-83.829-34.201-166.438-68.855-242.53-111.711
	c-74.465-41.939-149.013-87.59-217.544-136.699c-33.704-24.153-67.513-50.042-98.481-77.904
	c-30.809-27.715-62.542-56.615-82.313-94.073c1.942-9.142,10.218-15.874,16.169-23.518c17.131-21.995,35.865-47.313,54.386-69.083
	c11.469,0.033,22.265,2.509,30.867,2.939c180.235,8.98,243.738-118.467,321.904-224.892c30.9-42.073,59.149-80.504,92.603-124.939
	c6.919-9.193,14.768-20.553,23.518-30.868c8.149-9.605,19.498-23.07,27.928-26.458c26.079-10.485,68.841-1.675,97.014,2.938
	c32.112,5.259,59.324,11.495,85.253,19.109c12.347-12.962,19.77-30.343,29.397-45.565C791.128,37.116,801.478,20.677,812.662,4.229z
	 M839.12,70.373c-9.465,16.993-20.256,32.66-29.397,49.976c36.591,15.921,74.119,36.935,104.361,57.327
	c4.101,2.764,7.396,8.911,13.229,7.348c9.811-16.646,21.329-31.586,29.396-49.975C915.51,115.493,880.763,89.483,839.12,70.373z
	 M775.915,276.156c3.756-0.164,5.144-2.693,7.349-4.41C778.647,271.049,777.258,273.579,775.915,276.156z M750.928,345.24
	c-42.012,36.381-81.275,75.514-124.94,110.241c-48.068-24.935-93.106-52.901-141.109-77.903
	c21.465,50.07,43.942,99.127,66.146,148.458c-36.552,32.513-80.229,67.952-114.651,101.422c-0.905,0.882-7.833,3.278-2.938,5.88
	c52.911-5.394,104.452-12.158,157.276-17.639c22.098,46.496,42.081,95.107,64.675,141.108
	c9.554-40.107,19.804-79.977,27.929-114.651c3.049-13.016,3.566-26.292,10.287-38.216c52.769-7.007,105.937-13.616,160.219-19.109
	c-9.035-9.694-22.222-14.11-33.809-20.577c-23.892-13.34-46.664-27.243-69.083-39.687c-11.804-6.553-25.791-10.708-35.277-20.58
	c12.316-53.337,23.785-107.522,38.216-158.747C752.887,345.24,751.909,345.24,750.928,345.24z M612.758,427.556
	c1.47,0,2.94,0,4.41,0c0-1.472,0-2.941,0-4.411c-0.98,0-1.96,0-2.94,0C614.147,425.022,612.345,425.18,612.758,427.556z"/>
<path display="none" fill-rule="evenodd" clip-rule="evenodd" fill="#0000FF" d="M354.06,917.024
	c48.846-8.334,89.718,23.878,88.191,70.555c-1.277,39.12-32.884,62.226-58.794,66.146c-42.828,6.479-88.802-23.814-88.193-70.555
	C295.696,949.959,321.142,922.641,354.06,917.024z"/>
<path fill-rule="evenodd" clip-rule="evenodd" fill="#00FF00" d="M1079.932,539.999c0,298.199-241.737,539.933-539.931,539.933
	c-298.199,0-539.933-241.733-539.933-539.933c0-298.193,241.733-539.931,539.933-539.931
	C838.194,0.068,1079.932,241.806,1079.932,539.999z"/>
<path fill-rule="evenodd" clip-rule="evenodd" fill="#0000FF" d="M697.606,92.762c59.518,34.55,118.915,69.225,179.14,103.066
	c-13.017,28.702-31.11,52.326-45.397,79.755c5.377,12.258,17.214,18.805,25.767,28.222c16.627,18.306,31.471,36.488,46.625,60.122
	c6.888,10.74,16.094,24.415,15.952,36.812c-0.088,7.426-5.767,21.573-11.043,33.127c-32.255,70.634-66.604,137.229-99.387,207.362
	c-18.611,39.814-39.288,85.215-38.038,137.423c1.269,52.851,24.383,88.702,49.081,123.926
	c-11.599,28.893-25.089,55.894-36.811,84.662c-86.663-5.445-157.486-38.625-228.22-67.483
	c-69.977-28.55-138.936-57.478-202.453-93.251c-62.16-35.01-124.39-73.116-181.596-114.11
	c-28.135-20.163-56.357-41.773-82.209-65.031c-25.718-23.136-52.207-47.26-68.711-78.528c1.622-7.631,8.53-13.251,13.498-19.632
	c14.3-18.361,29.938-39.495,45.397-57.667c9.573,0.026,18.586,2.094,25.767,2.453c150.453,7.497,203.462-98.891,268.712-187.729
	c25.794-35.121,49.375-67.202,77.3-104.294c5.776-7.675,12.328-17.157,19.632-25.768c6.803-8.02,16.275-19.259,23.312-22.087
	c21.77-8.752,57.466-1.397,80.982,2.454c26.806,4.389,49.521,9.595,71.166,15.951c10.307-10.82,16.502-25.329,24.539-38.035
	C679.63,120.216,688.27,106.493,697.606,92.762z M719.691,147.977c-7.9,14.186-16.908,27.263-24.539,41.718
	c30.544,13.29,61.871,30.831,87.116,47.854c3.424,2.307,6.173,7.438,11.043,6.133c8.189-13.895,17.805-26.366,24.539-41.716
	C783.458,185.641,754.454,163.929,719.691,147.977z M666.931,319.755c3.136-0.137,4.295-2.247,6.136-3.682
	C669.213,315.492,668.053,317.604,666.931,319.755z M646.073,377.423c-35.069,30.37-67.845,63.036-104.295,92.025
	c-40.125-20.814-77.721-44.159-117.792-65.031c17.919,41.797,36.682,82.747,55.216,123.927
	c-30.513,27.141-66.973,56.724-95.706,84.663c-0.756,0.735-6.539,2.736-2.453,4.907c44.168-4.502,87.192-10.149,131.287-14.724
	c18.447,38.813,35.127,79.391,53.988,117.792c7.975-33.481,16.531-66.762,23.312-95.707c2.546-10.864,2.978-21.947,8.588-31.9
	c44.049-5.849,88.431-11.367,133.743-15.951c-7.542-8.093-18.549-11.779-28.222-17.178c-19.943-11.135-38.953-22.74-57.667-33.128
	c-9.854-5.471-21.53-8.939-29.448-17.179c10.281-44.523,19.855-89.756,31.9-132.517
	C647.709,377.423,646.893,377.423,646.073,377.423z M530.735,446.137c1.227,0,2.454,0,3.682,0c0-1.229,0-2.455,0-3.683
	c-0.818,0-1.637,0-2.455,0C531.896,444.022,530.39,444.153,530.735,446.137z"/>
<path fill-rule="evenodd" clip-rule="evenodd" fill="#0000FF" d="M314.786,854.724c40.772-6.957,74.892,19.932,73.617,58.896
	c-1.065,32.654-27.45,51.942-49.078,55.214c-35.752,5.409-74.128-19.878-73.62-58.896
	C266.066,882.216,287.307,859.411,314.786,854.724z"/>
</svg>
