<?xml version="1.0" encoding="utf-8"?>
<!-- Generator: Adobe Illustrator 15.0.0, SVG Export Plug-In . SVG Version: 6.00 Build 0)  -->
<!DOCTYPE svg PUBLIC "-//W3C//DTD SVG 1.1//EN" "http://www.w3.org/Graphics/SVG/1.1/DTD/svg11.dtd">
<svg version="1.1" id="Layer_1" xmlns="http://www.w3.org/2000/svg" xmlns:xlink="http://www.w3.org/1999/xlink" x="0px" y="0px"
	 width="1921px" height="1921px" viewBox="1388 -0.432 1921 1921" enable-background="new 1388 -0.432 1921 1921"
	 xml:space="preserve">
<g display="none">
	<g display="inline">
		<circle id="SVGID_1_" fill="#0000FF" cx="540" cy="540" r="540"/>
	</g>
	<g display="inline">
		<defs>
			<circle id="SVGID_2_" cx="540" cy="540" r="540"/>
		</defs>
		<clipPath id="SVGID_3_">
			<use xlink:href="#SVGID_2_"  overflow="visible"/>
		</clipPath>
		<g opacity="0.5" clip-path="url(#SVGID_3_)">
			<path fill="#FF0000" d="M674.132,89.589c58.61,34.022,117.102,68.167,176.406,101.493
				c-12.818,28.263-30.636,51.526-44.705,78.538c5.295,12.07,16.952,18.518,25.373,27.79c16.373,18.026,30.99,35.931,45.914,59.204
				c6.78,10.576,15.849,24.042,15.707,36.248c-0.085,7.312-5.679,21.245-10.874,32.623
				c-31.762,69.556-65.588,135.135-97.869,204.195c-18.327,39.207-38.688,83.914-37.456,135.325
				c1.247,52.045,24.011,87.348,48.33,122.034c-11.421,28.451-24.704,55.041-36.247,83.37
				c-85.341-5.363-155.083-38.037-224.737-66.454c-68.907-28.113-136.812-56.601-199.361-91.828
				c-61.211-34.475-122.49-72-178.823-112.368c-27.706-19.854-55.497-41.136-80.953-64.038
				c-25.324-22.782-51.41-46.538-67.663-77.329c1.597-7.515,8.399-13.05,13.291-19.332c14.082-18.08,29.481-38.893,44.706-56.787
				c9.427,0.027,18.302,2.062,25.373,2.417c148.156,7.382,200.355-97.381,264.609-184.864
				c25.399-34.584,48.621-66.174,76.119-102.702c5.688-7.556,12.141-16.894,19.332-25.374c6.698-7.896,16.027-18.963,22.957-21.748
				c21.438-8.619,56.588-1.376,79.746,2.416c26.397,4.322,48.767,9.448,70.079,15.708c10.149-10.655,16.251-24.942,24.165-37.456
				C656.432,116.624,664.938,103.11,674.132,89.589z M695.881,143.961c-7.78,13.968-16.65,26.847-24.165,41.08
				c30.078,13.088,60.929,30.361,85.786,47.123c3.371,2.272,6.079,7.326,10.875,6.041c8.064-13.684,17.533-25.964,24.165-41.081
				C758.675,181.05,730.112,159.67,695.881,143.961z M643.926,313.117c3.087-0.135,4.229-2.215,6.041-3.625
				C646.172,308.919,645.03,310.999,643.926,313.117z M623.386,369.905c-34.534,29.905-66.809,62.071-102.702,90.618
				c-39.514-20.496-76.535-43.484-115.992-64.036c17.643,41.157,36.121,81.482,54.371,122.034
				c-30.047,26.726-65.95,55.856-94.244,83.369c-0.744,0.726-6.438,2.695-2.416,4.833c43.494-4.434,85.859-9.993,129.283-14.499
				c18.164,38.222,34.592,78.181,53.163,115.993c7.854-32.969,16.278-65.742,22.957-94.245c2.507-10.699,2.934-21.611,8.457-31.414
				c43.376-5.76,87.081-11.191,131.701-15.708c-7.427-7.969-18.267-11.599-27.79-16.915c-19.64-10.966-38.359-22.394-56.788-32.623
				c-9.703-5.386-21.2-8.802-28.999-16.916c10.125-43.844,19.553-88.385,31.415-130.491
				C624.996,369.905,624.191,369.905,623.386,369.905z M509.809,437.568c1.208,0,2.418,0,3.625,0c0-1.209,0-2.417,0-3.625
				c-0.806,0-1.609,0-2.417,0C510.95,435.487,509.469,435.616,509.809,437.568z"/>
			<path fill="#FF0000" d="M297.155,839.919c40.15-6.851,73.749,19.628,72.495,57.996c-1.052,32.157-27.031,51.15-48.33,54.372
				c-35.205,5.326-72.996-19.574-72.496-57.996C249.18,866.991,270.097,844.535,297.155,839.919z"/>
		</g>
	</g>
	<g display="inline">
		<defs>
			<circle id="SVGID_4_" cx="540" cy="540" r="540"/>
		</defs>
		<clipPath id="SVGID_5_">
			<use xlink:href="#SVGID_4_"  overflow="visible"/>
		</clipPath>
		<g clip-path="url(#SVGID_5_)">
			<path fill="#EC831D" d="M704.132,79.589c58.61,34.022,117.102,68.167,176.406,101.493
				c-12.818,28.263-30.636,51.526-44.705,78.538c5.295,12.07,16.952,18.518,25.373,27.79c16.373,18.026,30.99,35.931,45.914,59.204
				c6.78,10.576,15.849,24.042,15.707,36.248c-0.085,7.312-5.679,21.245-10.874,32.623
				c-31.762,69.556-65.588,135.135-97.869,204.195c-18.327,39.207-38.688,83.914-37.456,135.325
				c1.247,52.045,24.011,87.348,48.33,122.034c-11.421,28.451-24.704,55.041-36.247,83.37
				c-85.341-5.363-155.083-38.037-224.737-66.454c-68.907-28.113-136.812-56.601-199.361-91.828
				c-61.211-34.475-122.49-72-178.823-112.368c-27.706-19.854-55.497-41.136-80.953-64.038
				c-25.324-22.782-51.41-46.538-67.663-77.329c1.597-7.515,8.399-13.05,13.291-19.332c14.082-18.08,29.481-38.893,44.706-56.787
				c9.427,0.027,18.302,2.062,25.373,2.417c148.156,7.382,200.355-97.381,264.609-184.864
				c25.399-34.584,48.621-66.174,76.119-102.702c5.688-7.556,12.141-16.894,19.332-25.374c6.698-7.896,16.027-18.963,22.957-21.748
				c21.438-8.619,56.588-1.376,79.746,2.416c26.397,4.322,48.767,9.448,70.079,15.708c10.149-10.655,16.251-24.942,24.165-37.456
				C686.432,106.624,694.938,93.11,704.132,79.589z M725.881,133.961c-7.78,13.968-16.65,26.847-24.165,41.08
				c30.078,13.088,60.929,30.361,85.786,47.123c3.371,2.272,6.079,7.326,10.875,6.041c8.064-13.684,17.533-25.964,24.165-41.081
				C788.675,171.05,760.112,149.67,725.881,133.961z M673.926,303.117c3.087-0.135,4.229-2.215,6.041-3.625
				C676.172,298.919,675.03,300.999,673.926,303.117z M653.386,359.905c-34.534,29.905-66.809,62.071-102.702,90.618
				c-39.514-20.496-76.535-43.484-115.992-64.036c17.643,41.157,36.121,81.482,54.371,122.034
				c-30.047,26.726-65.95,55.856-94.244,83.369c-0.744,0.726-6.438,2.695-2.416,4.833c43.494-4.434,85.859-9.993,129.283-14.499
				c18.164,38.222,34.592,78.181,53.163,115.993c7.854-32.969,16.278-65.742,22.957-94.245c2.507-10.699,2.934-21.611,8.457-31.414
				c43.376-5.76,87.081-11.191,131.701-15.708c-7.427-7.969-18.267-11.599-27.79-16.915c-19.64-10.966-38.359-22.394-56.788-32.623
				c-9.703-5.386-21.2-8.802-28.999-16.916c10.125-43.844,19.553-88.385,31.415-130.491
				C654.996,359.905,654.191,359.905,653.386,359.905z M539.809,427.568c1.209,0,2.418,0,3.625,0c0-1.209,0-2.417,0-3.625
				c-0.806,0-1.609,0-2.416,0C540.95,425.487,539.469,425.616,539.809,427.568z"/>
			<path fill="#EC831D" d="M327.155,829.919c40.15-6.851,73.749,19.628,72.495,57.996c-1.052,32.157-27.031,51.15-48.33,54.372
				c-35.205,5.326-72.996-19.574-72.496-57.996C279.18,856.991,300.097,834.535,327.155,829.919z"/>
		</g>
	</g>
</g>
<circle display="none" fill="#FFFFFF" cx="640" cy="540" r="264.404"/>
<path display="none" fill="#0000FF" d="M812.662,4.229c71.3,41.389,142.455,82.927,214.602,123.469
	c-15.593,34.383-37.269,62.684-54.385,95.543c6.442,14.685,20.623,22.527,30.867,33.809c19.919,21.929,37.701,43.711,55.855,72.023
	c8.25,12.866,19.279,29.247,19.108,44.098c-0.104,8.896-6.907,25.844-13.229,39.687c-38.639,84.615-79.789,164.395-119.061,248.409
	c-22.296,47.696-47.064,102.084-45.566,164.628c1.519,63.312,29.209,106.261,58.796,148.456
	c-13.895,34.611-30.054,66.959-44.097,101.423c-103.819-6.524-188.662-46.271-273.397-80.844
	c-83.829-34.201-166.438-68.854-242.53-111.711c-74.465-41.938-149.013-87.59-217.544-136.699
	c-33.704-24.152-67.513-50.042-98.481-77.903C52.791,640.9,21.058,612.001,1.287,574.543c1.942-9.143,10.218-15.874,16.169-23.518
	c17.131-21.995,35.865-47.313,54.386-69.084c11.469,0.033,22.265,2.51,30.867,2.939c180.235,8.98,243.738-118.467,321.904-224.892
	c30.9-42.073,59.148-80.504,92.603-124.939c6.919-9.193,14.769-20.553,23.519-30.868c8.148-9.604,19.498-23.07,27.928-26.458
	c26.079-10.485,68.841-1.675,97.014,2.938c32.112,5.259,59.324,11.495,85.253,19.109c12.348-12.962,19.771-30.343,29.397-45.565
	C791.128,37.116,801.479,20.677,812.662,4.229z M839.12,70.373c-9.465,16.993-20.256,32.66-29.397,49.976
	c36.592,15.921,74.119,36.935,104.361,57.327c4.102,2.764,7.396,8.911,13.229,7.348c9.812-16.646,21.33-31.586,29.396-49.975
	C915.51,115.493,880.763,89.483,839.12,70.373z M775.915,276.156c3.756-0.164,5.144-2.693,7.349-4.41
	C778.646,271.049,777.258,273.579,775.915,276.156z M750.928,345.24c-42.012,36.381-81.274,75.514-124.939,110.24
	c-48.068-24.935-93.106-52.9-141.109-77.902c21.465,50.07,43.942,99.127,66.146,148.458
	c-36.553,32.513-80.229,67.952-114.651,101.422c-0.905,0.882-7.833,3.278-2.938,5.88c52.911-5.394,104.452-12.158,157.276-17.639
	c22.099,46.496,42.081,95.106,64.675,141.107c9.555-40.106,19.805-79.977,27.93-114.65c3.049-13.017,3.565-26.292,10.287-38.217
	c52.769-7.007,105.937-13.615,160.219-19.108c-9.035-9.694-22.223-14.11-33.81-20.577c-23.892-13.34-46.664-27.243-69.083-39.688
	c-11.804-6.553-25.791-10.707-35.276-20.579c12.315-53.337,23.784-107.522,38.216-158.747
	C752.887,345.24,751.909,345.24,750.928,345.24z M612.758,427.556c1.471,0,2.94,0,4.41,0c0-1.472,0-2.94,0-4.411
	c-0.98,0-1.96,0-2.939,0C614.146,425.021,612.345,425.18,612.758,427.556z"/>
<path fill="#00FF00" d="M3304.185,953.431c0,526.534-426.837,953.365-953.362,953.365c-526.533,0-953.365-426.83-953.365-953.365
	c0-526.522,426.83-953.363,953.365-953.363C2877.346,0.068,3304.185,426.908,3304.185,953.431z"/>
<path display="none" fill="#0000FF" d="M354.061,917.024c48.846-8.334,89.718,23.878,88.19,70.555
	c-1.277,39.12-32.884,62.226-58.794,66.146c-42.828,6.479-88.802-23.813-88.193-70.555
	C295.696,949.959,321.142,922.641,354.061,917.024z"/>
<path fill="#00FF00" d="M1079.932,539.999c0,298.199-241.736,539.933-539.931,539.933c-298.199,0-539.933-241.732-539.933-539.933
	c0-298.193,241.733-539.931,539.933-539.931C838.194,0.068,1079.932,241.806,1079.932,539.999z"/>
<path fill="#0000FF" d="M697.605,92.762c59.519,34.55,118.916,69.226,179.141,103.066c-13.018,28.702-31.11,52.326-45.396,79.755
	c5.377,12.258,17.213,18.805,25.767,28.222c16.627,18.306,31.471,36.488,46.625,60.122c6.888,10.74,16.094,24.415,15.952,36.812
	c-0.088,7.426-5.768,21.573-11.043,33.127c-32.256,70.634-66.604,137.229-99.388,207.362
	c-18.61,39.813-39.288,85.215-38.038,137.423c1.27,52.851,24.384,88.702,49.081,123.926c-11.599,28.893-25.089,55.894-36.811,84.662
	c-86.663-5.445-157.486-38.625-228.22-67.483c-69.978-28.55-138.937-57.478-202.453-93.251
	c-62.16-35.01-124.39-73.116-181.596-114.11c-28.135-20.162-56.357-41.772-82.209-65.03c-25.718-23.136-52.207-47.261-68.711-78.528
	c1.622-7.631,8.53-13.251,13.498-19.632c14.3-18.361,29.938-39.495,45.397-57.667c9.573,0.025,18.586,2.094,25.767,2.453
	c150.453,7.497,203.462-98.891,268.712-187.729c25.795-35.121,49.375-67.202,77.301-104.294
	c5.775-7.675,12.328-17.157,19.632-25.768c6.803-8.021,16.274-19.259,23.312-22.087c21.771-8.752,57.466-1.397,80.982,2.454
	c26.806,4.389,49.521,9.595,71.166,15.951c10.307-10.82,16.502-25.329,24.539-38.035C679.63,120.216,688.27,106.493,697.605,92.762z
	 M719.691,147.977c-7.9,14.186-16.908,27.263-24.539,41.718c30.544,13.29,61.871,30.831,87.115,47.854
	c3.424,2.307,6.174,7.438,11.043,6.133c8.189-13.895,17.806-26.366,24.539-41.716C783.458,185.641,754.454,163.929,719.691,147.977z
	 M666.931,319.755c3.137-0.137,4.296-2.247,6.137-3.682C669.213,315.492,668.053,317.604,666.931,319.755z M646.073,377.423
	c-35.069,30.37-67.845,63.036-104.295,92.025c-40.125-20.814-77.722-44.159-117.792-65.031
	c17.919,41.797,36.682,82.747,55.216,123.927c-30.513,27.142-66.974,56.725-95.706,84.663c-0.756,0.735-6.539,2.736-2.453,4.907
	c44.168-4.502,87.192-10.149,131.287-14.725c18.447,38.813,35.127,79.392,53.988,117.793c7.975-33.481,16.53-66.763,23.312-95.707
	c2.546-10.864,2.979-21.947,8.588-31.9c44.05-5.849,88.432-11.367,133.743-15.951c-7.542-8.093-18.549-11.779-28.222-17.178
	c-19.943-11.135-38.953-22.74-57.667-33.128c-9.854-5.472-21.53-8.939-29.448-17.179c10.281-44.523,19.854-89.756,31.9-132.518
	C647.709,377.423,646.893,377.423,646.073,377.423z M530.735,446.137c1.227,0,2.454,0,3.682,0c0-1.229,0-2.455,0-3.683
	c-0.818,0-1.637,0-2.455,0C531.896,444.021,530.39,444.153,530.735,446.137z"/>
<path fill="#0000FF" d="M314.786,854.724c40.771-6.956,74.892,19.933,73.617,58.896c-1.065,32.654-27.45,51.942-49.078,55.214
	c-35.752,5.409-74.128-19.878-73.62-58.896C266.066,882.216,287.307,859.411,314.786,854.724z"/>
<g>
	<path fill="#FFFFFF" d="M2785.492,868.15c0,272-178.34,492.494-398.329,492.494c-219.995,0-398.331-220.494-398.331-492.494
		c0-271.992,178.336-492.491,398.331-492.491C2607.15,375.659,2785.492,596.158,2785.492,868.15z"/>
	<path fill="#0000FF" d="M2656.576,104.216c108.013,62.7,215.801,125.626,325.093,187.04
		c-23.624,52.085-56.457,94.958-82.384,144.734c9.759,22.245,31.239,34.125,46.761,51.214
		c30.173,33.222,57.111,66.218,84.613,109.104c12.497,19.492,29.206,44.308,28.946,66.806c-0.16,13.478-10.466,39.149-20.038,60.118
		c-58.536,128.181-120.871,249.031-180.363,376.308c-33.774,72.25-71.298,154.643-69.029,249.388
		c2.305,95.908,44.251,160.97,89.069,224.892c-21.049,52.432-45.53,101.432-66.8,153.639
		c-157.271-9.882-285.798-70.096-414.161-122.466c-126.991-51.811-252.131-104.305-367.398-169.225
		c-112.805-63.534-225.735-132.686-329.549-207.079c-51.058-36.591-102.272-75.808-149.188-118.014
		c-46.671-41.986-94.741-85.767-124.691-142.509c2.942-13.847,15.478-24.046,24.494-35.626
		c25.949-33.321,54.328-71.675,82.384-104.65c17.37,0.046,33.728,3.8,46.758,4.451c273.034,13.604,369.231-179.461,487.642-340.68
		c46.812-63.733,89.604-121.953,140.28-189.266c10.483-13.928,22.376-31.135,35.628-46.762
		c12.346-14.555,29.536-34.95,42.305-40.082c39.508-15.883,104.286-2.536,146.963,4.453c48.644,7.965,89.866,17.413,129.146,28.947
		c18.703-19.635,29.947-45.965,44.532-69.022C2623.955,154.04,2639.634,129.135,2656.576,104.216z M2696.656,204.418
		c-14.338,25.743-30.686,49.475-44.532,75.708c55.431,24.117,112.28,55.95,158.092,86.843c6.212,4.186,11.202,13.498,20.04,11.128
		c14.86-25.215,32.312-47.847,44.532-75.704C2812.375,272.769,2759.74,233.366,2696.656,204.418z M2600.91,516.149
		c5.691-0.249,7.795-4.077,11.135-6.682C2605.051,508.414,2602.945,512.246,2600.91,516.149z M2563.059,620.801
		c-63.641,55.115-123.119,114.394-189.269,167.003c-72.814-37.772-141.043-80.139-213.761-118.015
		c32.519,75.85,66.568,150.164,100.203,224.896c-55.375,49.253-121.539,102.939-173.683,153.64
		c-1.371,1.336-11.867,4.965-4.452,8.906c80.154-8.172,158.231-18.419,238.253-26.722c33.478,70.437,63.745,144.073,97.974,213.763
		c14.471-60.76,29.997-121.155,42.303-173.683c4.623-19.717,5.406-39.829,15.585-57.891c79.94-10.612,160.481-20.628,242.712-28.948
		c-13.688-14.686-33.663-21.374-51.216-31.172c-36.192-20.207-70.688-41.27-104.651-60.121
		c-17.885-9.928-39.069-16.221-53.441-31.174c18.658-80.798,36.032-162.883,57.891-240.482
		C2566.027,620.801,2564.546,620.801,2563.059,620.801z M2353.751,745.499c2.226,0,4.452,0,6.681,0c0-2.229,0-4.457,0-6.682
		c-1.484,0-2.971,0-4.455,0C2355.859,741.661,2353.123,741.899,2353.751,745.499z"/>
	<path fill="#0000FF" d="M1961.858,1486.979c73.989-12.625,135.909,36.172,133.596,106.881
		c-1.935,59.26-49.814,94.261-89.063,100.198c-64.88,9.815-134.522-36.072-133.599-106.883
		C1873.446,1536.868,1911.992,1495.485,1961.858,1486.979z"/>
</g>
</svg>
